<mxfile host="app.diagrams.net" modified="2022-06-29T11:26:18.771Z" agent="5.0 (Macintosh; Intel Mac OS X 10_15_7) AppleWebKit/605.1.15 (KHTML, like Gecko) Version/15.2 Safari/605.1.15" etag="P4-JoBn5dv2mZnHM7O2S" version="20.0.3" type="github">
  <diagram id="pXHEx5B0zCmos9JjCkFU" name="Page-1">
    <mxGraphModel dx="982" dy="538" grid="1" gridSize="10" guides="1" tooltips="1" connect="1" arrows="1" fold="1" page="1" pageScale="1" pageWidth="827" pageHeight="1169" math="0" shadow="0">
      <root>
        <mxCell id="0" />
        <mxCell id="1" parent="0" />
        <mxCell id="3MfGsReW21h4djv7292m-2" value="User" style="shape=umlActor;verticalLabelPosition=bottom;verticalAlign=top;html=1;" vertex="1" parent="1">
          <mxGeometry x="390" y="20" width="30" height="60" as="geometry" />
        </mxCell>
        <mxCell id="3MfGsReW21h4djv7292m-3" value="" style="strokeWidth=2;html=1;shape=mxgraph.flowchart.annotation_2;align=left;labelPosition=right;pointerEvents=1;fillColor=#dae8fc;strokeColor=#6c8ebf;" vertex="1" parent="1">
          <mxGeometry x="282" y="130" width="50" height="110" as="geometry" />
        </mxCell>
        <mxCell id="3MfGsReW21h4djv7292m-4" value="&lt;font color=&quot;#000000&quot; style=&quot;font-size: 15px;&quot;&gt;Presentation&lt;/font&gt;" style="whiteSpace=wrap;html=1;align=left;fillColor=#dae8fc;strokeColor=#6c8ebf;strokeWidth=2;" vertex="1" parent="1">
          <mxGeometry x="181" y="173" width="94" height="25" as="geometry" />
        </mxCell>
        <mxCell id="3MfGsReW21h4djv7292m-11" style="edgeStyle=orthogonalEdgeStyle;rounded=0;orthogonalLoop=1;jettySize=auto;html=1;exitX=0.5;exitY=0;exitDx=0;exitDy=0;entryX=0.44;entryY=1;entryDx=0;entryDy=0;entryPerimeter=0;fontSize=11;fontColor=#000000;fillColor=#1ba1e2;strokeColor=#006EAF;" edge="1" parent="1">
          <mxGeometry relative="1" as="geometry">
            <mxPoint x="407" y="198" as="sourcePoint" />
            <mxPoint x="405" y="168" as="targetPoint" />
          </mxGeometry>
        </mxCell>
        <mxCell id="3MfGsReW21h4djv7292m-14" value="" style="edgeStyle=orthogonalEdgeStyle;rounded=0;orthogonalLoop=1;jettySize=auto;html=1;fontSize=15;fontColor=#000000;fillColor=#1ba1e2;strokeColor=#006EAF;" edge="1" parent="1" source="3MfGsReW21h4djv7292m-9" target="3MfGsReW21h4djv7292m-13">
          <mxGeometry relative="1" as="geometry" />
        </mxCell>
        <mxCell id="3MfGsReW21h4djv7292m-9" value="&lt;font style=&quot;font-size: 11px;&quot;&gt;States&lt;/font&gt;" style="rounded=0;whiteSpace=wrap;html=1;fontSize=15;fontColor=#ffffff;fillColor=#1ba1e2;strokeColor=#006EAF;" vertex="1" parent="1">
          <mxGeometry x="388" y="198" width="35" height="30" as="geometry" />
        </mxCell>
        <mxCell id="3MfGsReW21h4djv7292m-13" value="&lt;font style=&quot;font-size: 15px;&quot;&gt;Widgets&lt;/font&gt;" style="rounded=1;whiteSpace=wrap;html=1;labelBackgroundColor=#CCE5FF;fontSize=11;fillColor=#dae8fc;strokeColor=#6c8ebf;" vertex="1" parent="1">
          <mxGeometry x="356" y="128" width="98" height="40" as="geometry" />
        </mxCell>
        <mxCell id="3MfGsReW21h4djv7292m-17" style="edgeStyle=orthogonalEdgeStyle;rounded=0;orthogonalLoop=1;jettySize=auto;html=1;exitX=0.5;exitY=0;exitDx=0;exitDy=0;entryX=0.5;entryY=1;entryDx=0;entryDy=0;fontSize=15;fontColor=#000000;endArrow=none;endFill=0;fillColor=#1ba1e2;strokeColor=#006EAF;" edge="1" parent="1" source="3MfGsReW21h4djv7292m-16" target="3MfGsReW21h4djv7292m-9">
          <mxGeometry relative="1" as="geometry" />
        </mxCell>
        <mxCell id="3MfGsReW21h4djv7292m-16" value="&lt;font style=&quot;font-size: 15px;&quot;&gt;Immutable&lt;br&gt;Notifiers&lt;br&gt;&lt;/font&gt;" style="rounded=1;whiteSpace=wrap;html=1;labelBackgroundColor=none;fontSize=11;fillColor=#fff2cc;strokeColor=#d6b656;" vertex="1" parent="1">
          <mxGeometry x="356.5" y="266" width="98" height="40" as="geometry" />
        </mxCell>
        <mxCell id="3MfGsReW21h4djv7292m-18" value="" style="strokeWidth=2;html=1;shape=mxgraph.flowchart.annotation_2;align=left;labelPosition=right;pointerEvents=1;fillColor=#fff2cc;strokeColor=#d6b656;" vertex="1" parent="1">
          <mxGeometry x="282" y="265" width="50" height="44" as="geometry" />
        </mxCell>
        <mxCell id="3MfGsReW21h4djv7292m-19" value="&lt;font color=&quot;#000000&quot; style=&quot;font-size: 15px;&quot;&gt;Application&lt;/font&gt;" style="whiteSpace=wrap;html=1;align=left;fillColor=#fff2cc;strokeColor=#d6b656;strokeWidth=2;" vertex="1" parent="1">
          <mxGeometry x="190" y="273.5" width="85" height="25" as="geometry" />
        </mxCell>
        <mxCell id="3MfGsReW21h4djv7292m-20" value="&lt;font style=&quot;font-size: 11px; line-height: 1;&quot;&gt;Raw Data&lt;/font&gt;" style="rounded=0;whiteSpace=wrap;html=1;fontSize=15;fontColor=#ffffff;fillColor=#76608a;strokeColor=#432D57;" vertex="1" parent="1">
          <mxGeometry x="480" y="133" width="35" height="30" as="geometry" />
        </mxCell>
      </root>
    </mxGraphModel>
  </diagram>
</mxfile>
